<?xml version="1.0" standalone="no"?>
<!DOCTYPE svg PUBLIC "-//W3C//DTD SVG 20010904//EN"
 "http://www.w3.org/TR/2001/REC-SVG-20010904/DTD/svg10.dtd">
<svg version="1.0" xmlns="http://www.w3.org/2000/svg"
 width="149.000000pt" height="149.000000pt" viewBox="0 0 149.000000 149.000000"
 preserveAspectRatio="xMidYMid meet">

<g transform="translate(0.000000,149.000000) scale(0.100000,-0.100000)"
fill="#e5cca5" stroke="none">
<path d="M618 1455 c-153 -29 -280 -98 -390 -213 -130 -136 -188 -274 -196
-464 -6 -147 13 -236 75 -360 202 -403 737 -519 1088 -235 313 253 361 715
107 1019 -168 201 -436 300 -684 253z m296 -55 c122 -31 208 -82 306 -180 138
-137 200 -285 200 -474 0 -188 -63 -339 -193 -471 -72 -72 -173 -145 -202
-145 -5 0 15 14 45 32 121 69 251 233 301 378 30 89 37 258 15 355 -58 243
-247 432 -494 492 -87 21 -248 21 -327 0 -32 -9 -61 -14 -63 -12 -4 3 70 26
123 38 57 13 216 6 289 -13z m-434 -40 c-8 -5 -19 -10 -25 -10 -5 0 -3 5 5 10
8 5 20 10 25 10 6 0 3 -5 -5 -10z m-237 -193 c-125 -143 -181 -369 -139 -561
53 -234 246 -438 471 -496 28 -7 95 -16 150 -20 l100 -7 -95 -1 c-116 -2 -186
14 -298 69 -258 126 -410 441 -348 721 26 115 113 279 171 320 20 15 17 7 -12
-25z m253 -172 c2 -49 5 -99 6 -110 3 -16 -3 -20 -27 -20 l-30 0 4 78 c2 67 0
80 -15 92 -18 13 -18 14 1 35 10 11 27 20 38 18 16 -3 19 -14 23 -93z m189 75
c20 -22 32 -111 21 -155 -8 -31 -40 -65 -61 -65 -9 0 -27 11 -40 25 -21 20
-25 34 -25 85 0 61 18 114 42 123 26 11 45 7 63 -13z m161 12 c35 -23 51 -141
25 -189 -42 -79 -121 -32 -121 71 0 91 48 150 96 118z m260 -6 c3 -9 -17 -43
-49 -83 -29 -37 -59 -78 -66 -90 -12 -24 -35 -30 -46 -14 -3 5 17 40 45 77 28
37 48 69 46 71 -11 11 -46 -10 -46 -26 0 -39 -71 -57 -78 -20 -5 29 32 59 98
78 82 24 89 24 96 7z m-25 -146 c38 -21 13 -75 -32 -68 -12 2 -27 11 -33 21
-9 15 -7 22 13 38 27 22 27 22 52 9z m-678 -258 c9 -10 20 -33 23 -50 6 -28 4
-32 -15 -32 -12 0 -23 6 -25 13 -2 6 -7 21 -11 32 -7 19 -8 18 -15 -5 -12 -37
-11 -118 0 -125 5 -3 15 5 22 19 7 17 19 26 35 26 29 0 29 -1 -2 -50 -29 -46
-61 -52 -91 -19 -34 38 -21 174 20 201 19 13 42 9 59 -10z m377 -39 l0 -56 23
21 c45 43 62 22 25 -29 l-23 -31 28 -23 c15 -13 27 -28 27 -34 0 -18 -25 -18
-50 1 -24 19 -24 19 -32 -2 -4 -12 -14 -20 -20 -17 -9 2 -13 33 -14 103 -1
109 1 124 22 124 10 0 14 -15 14 -57z m150 21 c0 -33 -33 -30 -38 4 -3 17 2
22 17 22 16 0 21 -6 21 -26z m-379 -43 c49 -40 22 -151 -37 -151 -51 0 -76
108 -34 150 25 25 41 25 71 1z m132 8 c30 -16 37 -28 37 -66 0 -42 -18 -81
-42 -88 -66 -22 -108 86 -53 140 28 29 29 29 58 14z m358 1 c29 -16 24 -57
-12 -91 -18 -16 -29 -32 -25 -36 3 -3 15 2 26 12 16 15 23 16 33 6 9 -10 7
-16 -12 -32 -13 -10 -30 -19 -39 -19 -54 0 -73 100 -27 145 27 28 29 29 56 15z
m128 0 c25 -13 34 -39 20 -57 -9 -10 -9 -17 -1 -25 15 -15 15 -51 0 -66 -19
-19 -53 -14 -78 13 -21 23 -22 25 -5 31 12 5 23 1 31 -11 8 -10 17 -15 21 -12
4 4 -8 21 -25 37 -37 34 -40 52 -12 80 23 23 25 23 49 10z m-236 -80 c-1 -68
-3 -75 -22 -78 -20 -3 -21 1 -21 78 0 78 1 81 22 78 20 -3 22 -8 21 -78z"/>
<path d="M633 1034 c-10 -25 -10 -120 0 -130 15 -16 29 16 31 70 1 60 -17 95
-31 60z"/>
<path d="M806 1034 c-10 -25 -7 -122 4 -129 14 -8 30 38 30 84 0 43 -23 73
-34 45z"/>
<path d="M507 584 c-11 -11 -8 -82 3 -89 12 -8 32 41 28 69 -3 21 -20 31 -31
20z"/>
<path d="M644 565 c-3 -14 -3 -37 1 -52 6 -27 7 -27 21 -9 19 27 19 86 -1 86
-8 0 -17 -11 -21 -25z"/>
<path d="M1003 575 c-8 -22 6 -33 17 -15 13 20 12 30 0 30 -6 0 -13 -7 -17
-15z"/>
</g>
</svg>
